<svg width="30" height="30" viewBox="0 0 30 30" fill="none" xmlns="http://www.w3.org/2000/svg">
<path fill-rule="evenodd" clip-rule="evenodd" d="M14.5607 21.5305C14.2794 21.7967 13.8979 21.9463 13.5002 21.9463C13.1024 21.9463 12.721 21.7967 12.4397 21.5305L6.43967 15.8512C6.15846 15.5849 6.00049 15.2238 6.00049 14.8473C6.00049 14.4708 6.15846 14.1098 6.43967 13.8435L12.4397 8.1641C12.7226 7.90547 13.1015 7.76235 13.4948 7.76559C13.8881 7.76882 14.2643 7.91815 14.5424 8.1814C14.8205 8.44465 14.9783 8.80076 14.9817 9.17304C14.9851 9.54532 14.8339 9.90398 14.5607 10.1718L11.1212 13.4275H22.5002C22.898 13.4275 23.2795 13.5771 23.5608 13.8433C23.8421 14.1096 24.0002 14.4708 24.0002 14.8473C24.0002 15.2239 23.8421 15.585 23.5608 15.8513C23.2795 16.1176 22.898 16.2672 22.5002 16.2672H11.1212L14.5607 19.5229C14.8419 19.7891 14.9998 20.1502 14.9998 20.5267C14.9998 20.9032 14.8419 21.2643 14.5607 21.5305Z" fill="black"/>
</svg>
